<?xml version="1.0" encoding="UTF-8" standalone="no"?>
<svg xmlns:inkscape="http://www.inkscape.org/namespaces/inkscape" xmlns:sodipodi="http://sodipodi.sourceforge.net/DTD/sodipodi-0.dtd" xmlns="http://www.w3.org/2000/svg" xmlns:svg="http://www.w3.org/2000/svg" width="377.953" height="56.023998" viewBox="0 0 377.953 56.023998" fill="none" class="logo-variant_orange" version="1.1" id="svg1617" sodipodi:docname="MyScale_logo.svg" inkscape:version="1.1.1 (3bf5ae0d25, 2021-09-20)">
  <defs id="defs1621"></defs>
  <g aria-label="MYSCALE" id="text375" style="font-weight:700;font-size:74.0715px;-inkscape-font-specification:'sans-serif Bold';fill:#000000;stroke-width:0.990957">
    <path d="M 0,0.977 H 17.722 L 30.02,29.875 42.39,0.977 H 60.076 V 54.975 H 46.91 V 15.48 L 34.468,44.595 H 25.643 L 13.2,15.48 V 54.975 H 0 Z" style="font-family:Poppins;-inkscape-font-specification:'Poppins Bold';fill:#000000" id="path6152"></path>
    <path d="m 66.187,0.977 h 15.227 l 12.297,19.24 12.297,-19.239 h 15.262 l -20.579,31.248 v 22.75 H 86.766 v -22.75 z" style="font-family:Poppins;-inkscape-font-specification:'Poppins Bold';fill:#000000" id="path6154"></path>
    <path d="m 164.925,2.676 v 11.43 q -4.449,-1.99 -8.68,-3.003 -4.232,-1.012 -7.993,-1.012 -4.992,0 -7.379,1.374 -2.387,1.375 -2.387,4.268 0,2.17 1.592,3.4 1.627,1.193 5.859,2.061 l 5.931,1.194 q 9.006,1.808 12.804,5.497 3.797,3.69 3.797,10.489 0,8.933 -5.316,13.31 -5.28,4.34 -16.167,4.34 -5.136,0 -10.308,-0.977 -5.172,-0.976 -10.344,-2.893 V 40.399 q 5.172,2.75 9.982,4.16 4.847,1.374 9.331,1.374 4.558,0 6.98,-1.519 2.424,-1.52 2.424,-4.34 0,-2.532 -1.664,-3.906 -1.627,-1.375 -6.546,-2.46 l -5.389,-1.193 q -8.102,-1.736 -11.863,-5.534 -3.725,-3.797 -3.725,-10.235 0,-8.066 5.208,-12.406 Q 136.28,0 146.045,0 q 4.449,0 9.15,0.687 4.703,0.651 9.73,1.99 z" style="font-family:Poppins;-inkscape-font-specification:'Poppins Bold';fill:#000000" id="path6156"></path>
    <path d="m 223.517,52.01 q -3.834,1.988 -7.994,3.001 -4.159,1.013 -8.68,1.013 -13.49,0 -21.375,-7.523 -7.884,-7.56 -7.884,-20.471 0,-12.948 7.884,-20.47 Q 193.353,0 206.843,0 q 4.521,0 8.68,1.013 4.16,1.012 7.994,3.002 V 15.19 q -3.87,-2.64 -7.632,-3.87 -3.761,-1.23 -7.92,-1.23 -7.451,0 -11.719,4.775 -4.268,4.774 -4.268,13.165 0,8.355 4.268,13.129 4.268,4.774 11.718,4.774 4.16,0 7.921,-1.23 3.762,-1.23 7.632,-3.87 z" style="font-family:Poppins;-inkscape-font-specification:'Poppins Bold';fill:#000000" id="path6158"></path>
    <path d="m 267.822,45.137 h -21.773 l -3.436,9.838 h -13.997 l 20,-53.998 h 16.602 l 20,53.998 h -13.996 z m -18.3,-10.018 h 14.792 l -7.378,-21.484 z" style="font-family:Poppins;-inkscape-font-specification:'Poppins Bold';fill:#000000" id="path6160"></path>
    <path d="m 292.38,0.977 h 13.924 V 44.45 h 24.45 V 54.975 H 292.38 Z" style="font-family:Poppins;-inkscape-font-specification:'Poppins Bold';fill:#000000" id="path6162"></path>
    <path d="m 339.579,0.977 h 37.578 V 11.5 h -23.654 v 10.055 h 22.243 V 32.08 h -22.243 v 12.37 h 24.45 v 10.524 h -38.374 z" style="font-family:Poppins;-inkscape-font-specification:'Poppins Bold';fill:#000000" id="path6164"></path>
  </g>
</svg>
