<?xml version="1.0" encoding="UTF-8" standalone="no"?>
<svg xmlns:inkscape="http://www.inkscape.org/namespaces/inkscape" xmlns:sodipodi="http://sodipodi.sourceforge.net/DTD/sodipodi-0.dtd" xmlns="http://www.w3.org/2000/svg" xmlns:svg="http://www.w3.org/2000/svg" width="170" height="40" viewBox="0 0 170 40" fill="none" version="1.1" id="svg206" sodipodi:docname="BigPanda_logo.svg" inkscape:version="1.2.2 (b0a84865, 2022-12-01)">
  <defs id="defs210"></defs>
  <g id="g1366" style="stroke:none;stroke-opacity:1;stroke-width:0.3;stroke-dasharray:none">
    <path d="M22.2398 1.83855L29.6012 3.33095L30.6484 2.18888C33.201 -0.592742 37.4863 -0.743384 40.2214 1.85256L40.6141 2.22391C43.3286 4.80584 43.494 9.13242 40.9827 11.9175L39.6358 13.1892L39.8046 13.7883C40.8139 13.8864 41.8129 14.0756 42.7912 14.3558C43.8419 14.6922 44.5343 15.7116 44.4688 16.8327L44.0003 20.329L43.2907 20.7143L42.6603 22.8549C42.0541 24.9989 41.4547 26.4562 40.2008 27.5808L38.2786 34.64L27.748 40H16.7178L6.19753 34.647L4.27535 27.5878C3.02146 26.4562 2.41863 25.0059 1.81579 22.8619L1.1854 20.7213L0.475783 20.336L0.00385022 16.8432C-0.0581555 15.7221 0.634242 14.7062 1.68489 14.3664C2.66321 14.0896 3.66219 13.9039 4.6715 13.8093L4.8403 13.2103L3.49339 11.9386C0.968384 9.14643 1.13373 4.80935 3.86198 2.22391L4.25469 1.85256C6.98983 -0.739881 11.2751 -0.589239 13.8277 2.18888L14.8749 3.33095L22.2363 1.83855H22.2398Z" fill="white" id="path182" style="stroke:none;stroke-opacity:1;stroke-width:0.3;stroke-dasharray:none"></path>
    <path d="M22.6873 31.4032C23.7896 31.3051 26.4903 30.8777 26.2492 29.2031C26.1631 28.6671 25.7669 27.4865 22.2326 28.2572C18.6914 27.49 18.2987 28.6671 18.216 29.2031C17.9783 30.8742 20.6583 31.3016 21.7572 31.4032V32.9481H18.216L18.5433 34.1497H25.8978L26.2251 32.9481H22.6839V31.4032H22.6873Z" fill="#1B1D3F" id="path184" style="stroke:none;stroke-opacity:1;stroke-width:0.3;stroke-dasharray:none"></path>
    <path d="M22.2408 3.76974L14.2214 5.39528L12.4715 3.48948C10.6182 1.46808 7.50758 1.35597 5.51995 3.24075L5.12725 3.60509C3.13617 5.48636 3.0225 8.64984 4.86889 10.6747C4.87233 10.6783 4.87578 10.6853 4.88267 10.6888L6.92541 12.6086L6.109 15.5619C3.47721 15.7615 2.24743 16.1609 2.22676 16.1749C1.98218 16.2625 1.82717 16.5112 1.85472 16.774L2.17509 19.1422L2.31632 19.2193C2.76414 19.461 2.87782 19.8184 3.4841 21.9799L3.59088 22.3618C4.24883 24.702 4.80344 25.7284 5.89543 26.5272L7.7556 33.3656L17.1047 38.1686H27.3632L36.7123 33.3656L38.5793 26.5272C39.6748 25.7284 40.2259 24.7055 40.8839 22.3618L40.9907 21.9799C41.5969 19.8219 41.7106 19.4575 42.1584 19.2193L42.2997 19.1422L42.6235 16.774C42.6476 16.5112 42.496 16.2625 42.248 16.1749C42.2308 16.1749 40.9976 15.758 38.3658 15.5619L37.5528 12.6086L39.599 10.6958C41.4591 8.68487 41.3661 5.51789 39.3854 3.62611C39.3785 3.6191 39.3716 3.6121 39.3647 3.60509L38.972 3.23374C36.9878 1.34546 33.8738 1.45406 32.0205 3.46846C32.0205 3.46846 32.0136 3.47547 32.0102 3.47897L30.2602 5.38476L22.2477 3.76624M22.2477 5.93829L33.8841 8.54124L36.1267 15.4743H35.0726C33.3846 15.4883 31.6967 15.6074 30.0225 15.8351C29.0856 15.9612 28.152 16.1224 27.2219 16.3116C26.4675 16.4797 25.8613 16.6304 25.3239 16.767C24.1423 17.0648 23.3569 17.2645 22.258 17.268H22.2305C21.1282 17.268 20.3462 17.0683 19.1647 16.767C18.6307 16.6304 18.0244 16.4762 17.2666 16.3116C16.3331 16.1084 15.3995 15.9472 14.4591 15.8281C12.785 15.6004 11.1005 15.4778 9.41253 15.4673H8.3481L10.5975 8.53774L22.2339 5.93829H22.2408H22.2477ZM6.98742 25.4412C6.49482 25.0768 6.09867 24.5969 5.82998 24.0398C5.52684 23.4057 5.33393 22.7261 5.25126 22.0289C4.89645 19.4085 5.26848 18.5256 5.52339 18.2279C5.75419 17.9581 6.04355 17.7479 6.36736 17.6148C6.95642 17.3836 7.57647 17.2399 8.21031 17.1944C8.92337 17.1243 9.63988 17.0893 10.3564 17.0963C11.0212 17.0963 11.7756 17.1173 12.5817 17.1594C12.6058 17.1594 15.2824 17.4046 16.8257 17.9476C17.5835 18.2139 18.6135 18.6448 18.8271 19.3349C19.0406 20.0251 18.8787 21.7592 18.4929 22.6841C17.9865 23.7561 17.2321 24.6879 16.2986 25.3991C15.7853 25.7529 14.342 26.5762 12.0374 26.5762H11.9858C10.2289 26.5657 8.82692 26.338 7.80727 25.8966C7.52136 25.774 7.24578 25.6233 6.99431 25.4412M35.2551 32.143L26.9567 36.4065H17.5249L9.22651 32.143L7.94506 27.4275C9.22651 27.7358 10.539 27.89 11.8549 27.89C12.4646 27.89 13.0709 27.8584 13.6771 27.7849C16.9979 27.3855 18.6583 25.266 18.9545 24.8456C19.6125 23.9172 20.3565 22.2672 20.9973 20.7748C21.2246 20.2493 22.1237 20.2247 22.2408 20.2247C22.3579 20.2247 23.257 20.2493 23.4844 20.7748C24.1251 22.2672 24.8623 23.9172 25.5271 24.8456C25.8268 25.266 27.4941 27.3855 30.8045 27.7849C31.4108 27.8549 32.0171 27.89 32.6268 27.89C33.9427 27.89 35.2551 27.7393 36.5331 27.4275L35.2551 32.143ZM39.2269 22.0289C39.1443 22.7261 38.9479 23.4057 38.6482 24.0398C38.3795 24.5934 37.9799 25.0768 37.4908 25.4412C37.2359 25.6233 36.9637 25.774 36.6778 25.8966C35.6582 26.338 34.2527 26.5657 32.4993 26.5762H32.4442C30.1397 26.5762 28.7066 25.7529 28.183 25.3991C27.2461 24.6915 26.4951 23.7596 25.9853 22.6911C25.5926 21.7697 25.4272 20.0461 25.6477 19.3419C25.8682 18.6378 26.8947 18.2209 27.6525 17.9546C29.1924 17.4116 31.8689 17.1699 31.8965 17.1664C32.7026 17.1278 33.4535 17.1033 34.1218 17.1033C34.8383 17.0963 35.5548 17.1313 36.2679 17.2014C36.8983 17.2504 37.5183 17.3906 38.1108 17.6218C38.4346 17.7549 38.724 17.9651 38.9548 18.2349C39.2097 18.5256 39.5818 19.4155 39.2269 22.0324" fill="#1B1D3F" id="path186" style="stroke:none;stroke-opacity:1;stroke-width:0.3;stroke-dasharray:none"></path>
    <path d="M67.7807 23.1071C67.2364 22.4134 66.5199 21.8809 65.7001 21.5691C66.2547 21.2013 66.7232 20.7178 67.078 20.1538C67.5637 19.3515 67.8083 18.4231 67.7876 17.4808C67.7876 15.8903 67.1744 14.6256 65.9653 13.7252C64.7562 12.8214 63.0958 12.3975 60.9532 12.3975H52.4688V31.5675H61.4734C63.8055 31.5675 65.6036 31.1121 66.8472 30.2117C68.0907 29.3114 68.7487 27.9661 68.7487 26.267C68.7487 25.0058 68.4214 23.9408 67.7773 23.1071M55.6069 15.0845H60.7121C61.997 15.0845 62.9891 15.3227 63.6642 15.7957C64.336 16.2686 64.6356 16.9097 64.6356 17.796C64.6356 18.6824 64.3153 19.341 63.6642 19.7964C63.0097 20.2519 61.9935 20.5076 60.7121 20.5076H55.6069V15.081V15.0845ZM64.5736 28.1728C63.8709 28.6388 62.7893 28.877 61.3666 28.877H55.6069V23.2051H61.3666C64.2016 23.2051 65.583 24.137 65.583 26.0533C65.583 27.0307 65.2557 27.7244 64.5771 28.1728" fill="white" id="path188" style="stroke:none;stroke-opacity:1;stroke-width:0.3;stroke-dasharray:none;fill:#000000"></path>
    <path d="M88.6153 16.9188V18.6565C88.0882 18.117 87.4647 17.6896 86.7758 17.3918C85.8181 16.9854 84.7916 16.7787 83.7547 16.7927C82.4629 16.7752 81.1849 17.08 80.0344 17.6755C78.9424 18.2431 78.0295 19.1119 77.4026 20.1839C76.1314 22.4751 76.1314 25.2742 77.4026 27.5654C78.0329 28.6374 78.9424 29.5132 80.0309 30.0877C81.1815 30.6938 82.4595 30.9986 83.7547 30.9811C84.7502 30.9881 85.7389 30.7954 86.6621 30.417C87.3373 30.1368 87.9573 29.7269 88.4844 29.2154V29.6568C88.4844 31.1738 88.1192 32.3088 87.3958 33.034C86.6724 33.7592 85.5253 34.1305 83.9786 34.1305C83.0072 34.1305 82.0392 33.9694 81.1195 33.6506C80.2755 33.3738 79.4901 32.9359 78.8115 32.3579L78.5807 32.1582L77.0994 34.5825L77.2613 34.7331C78.126 35.4898 79.1422 36.0398 80.241 36.3481C81.4812 36.723 82.7661 36.9087 84.0613 36.9052C86.5105 36.9052 88.3913 36.2851 89.6384 35.0589C90.8854 33.8363 91.5226 31.927 91.5226 29.3976V16.9188H88.6153ZM87.9608 26.122C87.5784 26.7771 87.0238 27.3061 86.3624 27.6599C85.6424 28.0383 84.8467 28.2275 84.0372 28.217C83.2208 28.231 82.4147 28.0418 81.6844 27.6599C81.0196 27.3096 80.4684 26.7771 80.086 26.122C79.6968 25.4424 79.497 24.6646 79.5073 23.8764C79.5073 22.5732 79.9172 21.5537 80.7578 20.7549C81.6017 19.9562 82.6972 19.5533 84.0372 19.5533C85.3772 19.5533 86.4519 19.9527 87.289 20.7549C88.1261 21.5572 88.5429 22.5732 88.5429 23.8764C88.5533 24.6611 88.35 25.4353 87.9608 26.115V26.122Z" fill="white" id="path190" style="stroke:none;stroke-opacity:1;stroke-width:0.3;stroke-dasharray:none;fill:#000000"></path>
    <path d="M107.826 14.1884C106.424 12.9868 104.481 12.3877 102.056 12.3877H94.6426V31.5578H97.7911V25.9209H102.059C104.484 25.9209 106.427 25.3219 107.829 24.1202C109.231 22.9186 109.965 21.244 109.965 19.1491C109.965 17.0541 109.231 15.39 107.826 14.1919M105.607 22.0568C104.787 22.7329 103.565 23.0763 101.976 23.0763H97.7773V15.2499H101.966C103.554 15.2499 104.777 15.5932 105.597 16.2694C106.417 16.9455 106.809 17.8879 106.809 19.1631C106.809 20.4383 106.413 21.3877 105.597 22.0568H105.607Z" fill="white" id="path192" style="stroke:none;stroke-opacity:1;stroke-width:0.3;stroke-dasharray:none;fill:#000000"></path>
    <path d="M137.146 18.4148C136.061 17.3288 134.59 16.7788 132.761 16.7788C131.714 16.7578 130.673 16.9645 129.709 17.3779C129.075 17.6546 128.503 18.0575 128.024 18.5585V16.9154H125.086V31.5592H128.121V24.0236C128.121 22.5943 128.493 21.4872 129.223 20.7375C129.953 19.9843 130.976 19.6095 132.258 19.6095C133.384 19.6095 134.252 19.9283 134.845 20.5624C135.434 21.1965 135.741 22.1809 135.741 23.4666V31.5627H138.779V23.1688C138.779 21.0984 138.228 19.4974 137.143 18.4113L137.149 18.4043L137.146 18.4148Z" fill="white" id="path194" style="stroke:none;stroke-opacity:1;stroke-width:0.3;stroke-dasharray:none;fill:#000000"></path>
    <path d="M152.492 18.598C151.996 18.0865 151.411 17.6731 150.767 17.3788C149.868 16.976 148.896 16.7693 147.911 16.7798C146.605 16.7623 145.317 17.0846 144.173 17.7187C143.081 18.3317 142.182 19.2426 141.573 20.3461C140.932 21.5373 140.608 22.8755 140.632 24.2313C140.608 25.5906 140.932 26.9358 141.573 28.1305C142.179 29.2445 143.078 30.1589 144.173 30.7755C145.32 31.4096 146.605 31.7319 147.911 31.7143C148.924 31.7249 149.93 31.5076 150.849 31.0767C151.507 30.7649 152.1 30.3305 152.596 29.791V31.5532H155.531V10.5859L152.492 12.1694V18.598ZM151.948 26.7081C151.586 27.3983 151.042 27.9728 150.374 28.3617C148.965 29.1534 147.256 29.1534 145.847 28.3617C145.183 27.9658 144.638 27.3948 144.273 26.7081C143.498 25.1562 143.498 23.3239 144.273 21.772C144.638 21.0853 145.183 20.5178 145.847 20.1324C147.26 19.3582 148.962 19.3582 150.374 20.1324C151.042 20.5143 151.59 21.0818 151.948 21.772C152.709 23.3274 152.709 25.1562 151.948 26.7116" fill="white" id="path196" style="stroke:none;stroke-opacity:1;stroke-width:0.3;stroke-dasharray:none;fill:#000000"></path>
    <path d="M121.25 18.297C120.182 17.2951 118.722 16.7871 116.658 16.7871C113.548 16.7871 111.543 18.1289 111.543 18.1289L112.893 20.4796C112.893 20.4796 114.226 19.5372 116.551 19.5372C117.513 19.5372 118.391 19.8035 118.966 20.3395C119.542 20.872 119.824 21.6532 119.824 22.6727V22.9144H116.104C114.113 22.9144 112.628 23.3138 111.694 24.116C109.969 25.6329 109.779 28.2884 111.274 30.0436C111.422 30.2188 111.588 30.3834 111.763 30.5306C112.748 31.3293 114.051 31.7322 115.659 31.7322C116.641 31.7532 117.616 31.571 118.525 31.1892C119.059 30.958 119.545 30.6216 119.951 30.2012V31.571H122.859V22.7813C122.859 20.8194 122.318 19.306 121.247 18.3005M119.824 26.9362C119.548 27.6333 119.059 28.2219 118.429 28.6143C117.719 29.0346 116.906 29.2484 116.086 29.2273C115.187 29.2273 114.485 29.0381 113.992 28.6668C113.527 28.334 113.262 27.7805 113.286 27.2024C113.286 26.7295 113.286 25.2861 116.217 25.2861H119.827V26.9362H119.824Z" fill="white" id="path198" style="stroke:none;stroke-opacity:1;stroke-width:0.3;stroke-dasharray:none;fill:#000000"></path>
    <path d="M168.391 18.297C167.323 17.2951 165.863 16.7871 163.803 16.7871C160.689 16.7871 158.687 18.1289 158.687 18.1289L160.038 20.4796C160.038 20.4796 161.371 19.5372 163.696 19.5372C164.657 19.5372 165.536 19.8035 166.111 20.3395C166.686 20.872 166.969 21.6532 166.969 22.6727V22.9144H163.248C161.257 22.9144 159.772 23.3138 158.839 24.116C157.113 25.6329 156.924 28.2884 158.419 30.0436C158.567 30.2188 158.732 30.3834 158.908 30.5306C159.893 31.3293 161.195 31.7322 162.804 31.7322C163.789 31.7532 164.764 31.5675 165.673 31.1892C166.207 30.958 166.693 30.6216 167.099 30.2012V31.571H170V22.7848C170 20.8229 169.456 19.3095 168.384 18.304M166.965 26.9397C166.69 27.6368 166.2 28.2254 165.57 28.6178C164.857 29.0417 164.044 29.2519 163.221 29.2308C162.322 29.2308 161.619 29.0417 161.126 28.6703C160.661 28.3375 160.396 27.784 160.42 27.2059C160.42 26.733 160.42 25.2896 163.352 25.2896H166.965V26.9397Z" fill="white" id="path200" style="stroke:none;stroke-opacity:1;stroke-width:0.3;stroke-dasharray:none;fill:#000000"></path>
    <path d="M74.07 31.5638H71.0352V18.6752L74.07 16.9971V31.5638Z" fill="white" id="path202" style="stroke:none;stroke-opacity:1;stroke-width:0.3;stroke-dasharray:none;fill:#000000"></path>
    <path d="M72.5496 15.9059C72.0295 15.9199 71.5231 15.7202 71.151 15.3523C70.7825 14.9985 70.5792 14.5045 70.5861 13.9896C70.5792 13.4711 70.7825 12.9736 71.1476 12.6128C71.5196 12.2344 72.026 12.0277 72.5496 12.0417C73.0663 12.0277 73.5693 12.2204 73.9482 12.5812C74.3168 12.9281 74.5235 13.4185 74.5166 13.93C74.5269 14.4555 74.3237 14.9635 73.9551 15.3313C73.5865 15.7097 73.0767 15.9199 72.5531 15.9059" fill="white" id="path204" style="stroke:none;stroke-opacity:1;stroke-width:0.3;stroke-dasharray:none;fill:#000000"></path>
  </g>
</svg>
